<svg width="150" height="82" viewBox="0 0 150 82" fill="none" xmlns="http://www.w3.org/2000/svg">
<path d="M45.6522 61.9727C47.6413 58.7281 49.288 55.9564 51.0326 53.2661C51.7174 52.2064 51.3587 51.4237 50.8206 50.5107C45.0978 40.6303 39.4076 30.7498 33.7174 20.8694C33.2609 20.0868 32.9022 19.2553 31.7446 19.2716C28.4511 19.3042 25.1413 19.2879 21.4076 19.2879C24.5054 24.7824 27.212 29.9509 30.2935 34.8748C31.7446 37.1901 33.0489 38.6085 31.3043 40.6792C30.4728 41.6737 28.712 43.239 28.0272 44.3477C26.8859 44.0868 18.212 28.3857 14.25 21.3422C13.4022 19.8422 12.4891 19.1411 10.712 19.239C7.92391 19.3531 5.10326 19.239 1.63043 19.239C9.79891 33.6357 17.7065 47.5922 25.8913 62.0216C29.3804 56.2498 33.2283 52.1248 36.7011 46.3531C39.913 51.9781 42.3424 56.152 45.6522 61.9727Z" fill="white"/>
<path d="M68.2826 23.1523C64.712 29.1849 61.2228 35.0871 57.6359 41.1849C56.7065 42.7501 54.4239 42.7501 53.5109 41.1849C49.9239 35.1034 46.4185 29.2012 42.8642 23.1523C41.9185 21.5545 43.0761 19.5327 44.9348 19.5327H66.2446C68.0707 19.5327 69.2283 21.5545 68.2826 23.1523Z" fill="white"/>
<path d="M69.4566 59.4131C69.1468 60.0652 68.7066 60.6033 68.1522 61.0435C67.5979 61.4837 66.9294 61.8098 66.1794 62.0218C65.4131 62.25 64.6142 62.3479 63.75 62.3479C62.5435 62.3479 61.337 62.1359 60.0979 61.712C58.8587 61.2881 57.7174 60.6685 56.674 59.8533L58.3859 57.2609C59.299 57.9294 60.212 58.4511 61.1576 58.7935C62.087 59.1359 63 59.3152 63.8642 59.3152C64.6794 59.3152 65.3153 59.1522 65.7718 58.8261C66.2283 58.5 66.4566 58.0598 66.4566 57.5218V57.4565C66.4566 57.1468 66.3587 56.8696 66.1631 56.6413C65.9674 56.4131 65.6903 56.2011 65.3479 56.0218C65.0055 55.8424 64.5979 55.6794 64.1413 55.5489C63.6848 55.4185 63.212 55.2718 62.7392 55.125C62.1359 54.9294 61.5163 54.7174 60.8968 54.4892C60.2772 54.2609 59.7229 53.9511 59.2174 53.5924C58.7283 53.2174 58.3207 52.7772 57.9946 52.2392C57.6848 51.7011 57.5218 51.0326 57.5218 50.2337V50.1685C57.5218 49.3859 57.6685 48.6848 57.9783 48.0489C58.2881 47.4131 58.712 46.875 59.25 46.4348C59.7881 45.9946 60.424 45.6522 61.1413 45.4239C61.875 45.1957 62.6413 45.0815 63.4566 45.0815C64.5163 45.0815 65.5761 45.2446 66.6522 45.587C67.7283 45.9294 68.7066 46.3859 69.587 46.9728L68.0707 49.6957C67.2718 49.2065 66.4566 48.8315 65.6413 48.5381C64.8261 48.2609 64.0598 48.1142 63.3587 48.1142C62.625 48.1142 62.0544 48.2772 61.6305 48.587C61.2229 48.8968 61.0109 49.3044 61.0109 49.7935V49.8587C61.0109 50.1522 61.1087 50.4131 61.3207 50.625C61.5326 50.8533 61.8098 51.0489 62.1522 51.2283C62.4946 51.4076 62.9022 51.5707 63.3587 51.7337C63.8153 51.8968 64.2881 52.0435 64.7609 52.1902C65.3642 52.3859 65.9837 52.5978 66.587 52.8587C67.1903 53.1196 67.7446 53.4294 68.25 53.7881C68.7392 54.1631 69.1468 54.6033 69.4729 55.125C69.7826 55.6468 69.9457 56.2989 69.9457 57.0489V57.1142C69.9294 57.9946 69.7663 58.7609 69.4566 59.4131Z" fill="white"/>
<path d="M84.0164 62.038V59.9836C83.4457 60.6521 82.7283 61.2228 81.8316 61.6956C80.9512 62.1521 79.8751 62.3967 78.6033 62.3967C77.8044 62.3967 77.0381 62.2825 76.3207 62.0706C75.6033 61.8423 74.9838 61.5162 74.4457 61.0923C73.9077 60.6684 73.4838 60.1304 73.1577 59.4782C72.8316 58.8423 72.6685 58.0923 72.6685 57.2445V57.1793C72.6685 56.2662 72.8316 55.4836 73.174 54.8152C73.5164 54.1467 73.9729 53.576 74.5762 53.1358C75.1794 52.6956 75.8968 52.3695 76.7283 52.1412C77.5599 51.913 78.4566 51.8152 79.4349 51.8152C80.4457 51.8152 81.3099 51.8804 82.0109 52.0108C82.712 52.1412 83.3968 52.3043 84.049 52.5162V52.1086C84.049 50.951 83.6903 50.0706 82.9892 49.451C82.2881 48.8478 81.2609 48.538 79.9403 48.538C78.9946 48.538 78.1468 48.6358 77.4131 48.8152C76.6794 49.0108 75.9294 49.2554 75.1631 49.5815L74.1196 46.5162C75.049 46.0923 75.9946 45.7499 76.9566 45.5054C77.9186 45.2445 79.0925 45.1304 80.462 45.1304C82.9403 45.1304 84.799 45.7499 85.9892 46.9728C87.1957 48.2119 87.7827 49.9402 87.7827 52.1738V62.0706H84.0164V62.038ZM84.1142 54.9456C83.6251 54.7499 83.0544 54.6032 82.3859 54.4728C81.7175 54.3423 81.0164 54.2771 80.2827 54.2771C79.0762 54.2771 78.1468 54.5054 77.462 54.9782C76.7935 55.4347 76.4512 56.1032 76.4512 56.9673V57.0325C76.4512 57.8315 76.7609 58.451 77.3805 58.8586C78.0001 59.2825 78.7664 59.4945 79.6794 59.4945C80.3153 59.4945 80.9022 59.413 81.4403 59.2336C81.9783 59.0706 82.4512 58.826 82.8425 58.5162C83.2501 58.2065 83.5599 57.8478 83.7718 57.4075C84.0001 56.9836 84.0979 56.4945 84.0979 55.9728V54.9456H84.1142Z" fill="white"/>
<path d="M103.304 45.3423H107.152V62.0379H103.304V59.4129C102.75 60.2282 102.082 60.913 101.25 61.4999C100.435 62.0869 99.375 62.3803 98.1033 62.3803C96.212 62.3803 94.7446 61.7934 93.7174 60.6358C92.6903 59.4782 92.1685 57.9129 92.1685 55.9564V45.3423H96.0164V54.7988C96.0164 56.1032 96.3261 57.114 96.9457 57.8151C97.5653 58.5162 98.4294 58.8749 99.5707 58.8749C100.679 58.8749 101.576 58.5162 102.261 57.7825C102.946 57.0651 103.288 56.0379 103.288 54.7336V45.3423H103.304ZM97.8261 43.2553L101.169 38.0706L104.641 39.6195L100.794 43.2553H97.8261Z" fill="white"/>
<path d="M124.5 62.0379V59.2499C123.897 60.114 123.13 60.8477 122.217 61.4673C121.304 62.0705 120.179 62.3803 118.826 62.3803C117.832 62.3803 116.886 62.1847 115.957 61.8097C115.027 61.4347 114.212 60.864 113.495 60.114C112.777 59.364 112.207 58.451 111.766 57.3749C111.326 56.2988 111.098 55.0597 111.098 53.6738C111.098 52.2879 111.31 51.0488 111.75 49.9727C112.174 48.8966 112.761 47.9836 113.462 47.2336C114.179 46.4836 114.995 45.9292 115.94 45.5379C116.87 45.1629 117.832 44.9673 118.826 44.9673C120.196 44.9673 121.321 45.2608 122.234 45.8477C123.13 46.4347 123.897 47.1195 124.5 47.9021V38.9673H128.348V62.0379H124.5ZM124.174 51.4727C123.913 50.8205 123.554 50.2499 123.114 49.7771C122.674 49.3042 122.152 48.9455 121.565 48.6847C120.978 48.4401 120.375 48.3097 119.739 48.3097C119.087 48.3097 118.467 48.4238 117.897 48.6684C117.326 48.9129 116.804 49.2716 116.364 49.7282C115.924 50.1847 115.582 50.7553 115.321 51.4238C115.076 52.0923 114.946 52.8423 114.946 53.6901C114.946 54.5053 115.076 55.2553 115.321 55.9238C115.565 56.5923 115.924 57.1466 116.364 57.6195C116.804 58.076 117.31 58.4347 117.897 58.6955C118.467 58.9401 119.087 59.0705 119.739 59.0705C120.375 59.0705 120.978 58.9401 121.565 58.6955C122.152 58.4347 122.674 58.076 123.114 57.6032C123.554 57.1303 123.913 56.5597 124.174 55.9075C124.435 55.2553 124.565 54.5216 124.565 53.6901C124.565 52.8586 124.435 52.1249 124.174 51.4727Z" fill="white"/>
<path d="M137.69 58.1902C138.554 58.9239 139.614 59.2826 140.853 59.2826C141.799 59.2826 142.63 59.1195 143.315 58.7771C144.016 58.4347 144.701 57.9456 145.37 57.2934L147.62 59.2826C146.821 60.2282 145.859 60.9945 144.766 61.5652C143.658 62.1358 142.337 62.413 140.804 62.413C139.598 62.413 138.489 62.201 137.446 61.7771C136.402 61.3532 135.489 60.7663 134.723 59.9999C133.957 59.2336 133.353 58.3369 132.913 57.2608C132.473 56.201 132.245 55.0108 132.245 53.7065C132.245 52.4999 132.44 51.3749 132.848 50.3315C133.255 49.2717 133.81 48.3586 134.544 47.5597C135.277 46.7771 136.125 46.1413 137.12 45.6847C138.114 45.2282 139.207 44.9836 140.413 44.9836C141.734 44.9836 142.908 45.2282 143.902 45.7173C144.897 46.2065 145.728 46.8586 146.397 47.6739C147.065 48.4891 147.554 49.451 147.897 50.5434C148.207 51.6521 148.37 52.8097 148.37 53.9999C148.37 54.163 148.37 54.3423 148.353 54.5054C148.337 54.6684 148.321 54.8478 148.304 55.0434H136.044C136.272 56.413 136.826 57.4728 137.69 58.1902ZM144.571 52.5163C144.505 51.913 144.375 51.326 144.163 50.788C143.951 50.2499 143.674 49.7934 143.315 49.4021C142.957 49.0108 142.533 48.701 142.027 48.4728C141.538 48.2445 140.967 48.1304 140.332 48.1304C139.158 48.1304 138.179 48.538 137.413 49.3532C136.647 50.1684 136.174 51.2282 136.011 52.5326H144.571V52.5163Z" fill="white"/>
<path d="M57.6196 21.0325H60.5707V24.7499H64.337V27.6357H60.5707V31.3694H57.6196V27.6357H53.8533V24.7499H57.6196V21.0325Z" fill="#1A2C5B"/>
<g opacity="0.25">
<path opacity="0.3" d="M53.9838 38.6902L46.7609 20.5271L50.3316 19.1086L56.5272 27.163L60.8153 35.9673L53.9838 38.6902Z" fill="white"/>
<path opacity="0.3137" d="M54 38.7389L46.7446 20.5432L50.3315 19.1248L56.6087 27.3258L60.75 36.0813C60.7337 36.0976 54.0163 38.7715 54 38.7389Z" fill="#FAFAFA"/>
<path opacity="0.3275" d="M54.0164 38.8041L46.7283 20.5432L50.3316 19.1248L56.6903 27.4889L60.6849 36.1954C60.6686 36.228 54.0327 38.8367 54.0164 38.8041Z" fill="#F5F5F5"/>
<path opacity="0.3412" d="M54.0327 38.853L46.712 20.5432L50.3479 19.1248L56.7881 27.6519L60.6197 36.2932C60.587 36.3585 54.0653 38.9182 54.0327 38.853Z" fill="#F0F0F0"/>
<path opacity="0.3549" d="M54.049 38.9019L46.6794 20.5432L50.3316 19.1248L56.8533 27.7987L60.5381 36.3911C60.5055 36.4889 54.0979 38.9835 54.049 38.9019Z" fill="#EBEBEB"/>
<path opacity="0.3686" d="M54.0816 38.9672L46.6794 20.5759L50.3479 19.1575L56.9674 27.9944L60.4892 36.5379C60.4239 36.6194 54.1142 39.0651 54.0816 38.9672Z" fill="#E6E6E6"/>
<path opacity="0.3824" d="M54.0979 39.0162L46.6631 20.5759L50.3479 19.1575L57.049 28.1412L60.424 36.6357C60.3424 36.7499 54.1468 39.1466 54.0979 39.0162Z" fill="#E1E1E1"/>
<path opacity="0.3961" d="M54.1142 39.0651L46.6469 20.576L50.3479 19.1738L57.1305 28.3206L60.3588 36.7499C60.2773 36.8804 54.1795 39.2119 54.1142 39.0651Z" fill="#DCDCDC"/>
<path opacity="0.4098" d="M54.1305 39.1304L46.6305 20.5924L50.3479 19.1902L57.212 28.4837L60.2772 36.8641C60.1957 37.0108 54.1957 39.2935 54.1305 39.1304Z" fill="#D7D7D7"/>
<path opacity="0.4235" d="M54.1468 39.1793L46.6142 20.5924L50.3642 19.1902L57.3099 28.6467L60.2283 36.9782C60.1142 37.1413 54.2283 39.3587 54.1468 39.1793Z" fill="#D2D2D2"/>
<path opacity="0.4373" d="M54.1631 39.2282L46.5978 20.5924L50.3641 19.1902L57.3913 28.7934L60.1468 37.0761C60.0326 37.2717 54.2446 39.4402 54.1631 39.2282Z" fill="#CDCDCD"/>
<path opacity="0.451" d="M54.1794 39.2933L46.5815 20.6085L50.3642 19.2063L57.4729 28.9726L60.0816 37.19C59.9511 37.4019 54.2772 39.5215 54.1794 39.2933Z" fill="#C8C8C8"/>
<path opacity="0.4647" d="M54.1957 39.3422L46.5652 20.6085L50.3642 19.2063L57.5707 29.1356L60.0163 37.3041C59.8696 37.5324 54.3098 39.5867 54.1957 39.3422Z" fill="#C3C3C3"/>
<path opacity="0.4784" d="M54.2121 39.3911L46.549 20.6085L50.3642 19.2063L57.6523 29.2824L59.9512 37.402C59.8044 37.6628 54.3262 39.6683 54.2121 39.3911Z" fill="#BEBEBE"/>
<path opacity="0.4922" d="M54.2283 39.4564L46.5327 20.6248L50.3642 19.2227L57.7337 29.4618L59.8859 37.5161C59.7229 37.7933 54.3587 39.7498 54.2283 39.4564Z" fill="#B9B9B9"/>
<path opacity="0.5059" d="M54.2446 39.5053L46.5 20.6248L50.3641 19.2227L57.8152 29.6085L59.8044 37.614C59.6413 37.9237 54.3913 39.815 54.2446 39.5053Z" fill="#B4B4B4"/>
<path opacity="0.5196" d="M54.2609 39.5705L46.4837 20.6412L50.3641 19.239L57.8967 29.7879L59.7391 37.7444C59.5598 38.0542 54.4076 39.8966 54.2609 39.5705Z" fill="#AFAFAF"/>
<path opacity="0.5333" d="M54.2935 39.6195L46.4837 20.6412L50.3804 19.2554L57.9946 29.951L59.6739 37.8586C59.4783 38.1847 54.4402 39.9619 54.2935 39.6195Z" fill="#AAAAAA"/>
<path opacity="0.5471" d="M54.3099 39.6684L46.4675 20.6412L50.3805 19.2554L58.0762 30.1141L59.6088 37.9565C59.4131 38.3152 54.4729 40.0434 54.3099 39.6684Z" fill="#A5A5A5"/>
<path opacity="0.5608" d="M54.3262 39.7334L46.4512 20.6574L50.3805 19.2715L58.174 30.2932L59.5436 38.0867C59.3316 38.4454 54.4892 40.1248 54.3262 39.7334Z" fill="#A0A0A0"/>
<path opacity="0.5745" d="M54.3424 39.7824L46.4348 20.6574L50.3805 19.2715L58.2555 30.44L59.4783 38.1845C59.25 38.5758 54.5218 40.19 54.3424 39.7824Z" fill="#9B9B9B"/>
<path opacity="0.5882" d="M54.3587 39.8313L46.4185 20.6574L50.3968 19.2715L58.3533 30.603L59.4294 38.2987C59.1685 38.7063 54.5544 40.2715 54.3587 39.8313Z" fill="#969696"/>
<path opacity="0.602" d="M54.375 39.8968L46.4022 20.674L50.3968 19.2881L58.4348 30.7663L59.3479 38.3968C59.087 38.837 54.5707 40.3533 54.375 39.8968Z" fill="#919191"/>
<path opacity="0.6157" d="M54.3914 39.9457L46.3859 20.674L50.3968 19.2881L58.5164 30.9294L59.2827 38.5109C59.0055 38.9674 54.6033 40.4185 54.3914 39.9457Z" fill="#8C8C8C"/>
<path opacity="0.6294" d="M54.4077 39.9944L46.3696 20.6901L50.3968 19.3042L58.5979 31.0922L59.2012 38.6249C58.9403 39.0977 54.6196 40.4999 54.4077 39.9944Z" fill="#878787"/>
<path opacity="0.6431" d="M54.4239 40.0597L46.337 20.7064L50.3805 19.3206L58.6631 31.2716L59.1196 38.7553C58.8587 39.2282 54.6522 40.5651 54.4239 40.0597Z" fill="#828282"/>
<path opacity="0.6569" d="M54.4402 40.1086L46.3207 20.7064L50.3968 19.3206L58.7772 31.4184L59.0707 38.8369C58.7772 39.3586 54.6848 40.6466 54.4402 40.1086Z" fill="#7D7D7D"/>
<path opacity="0.6706" d="M54.4566 40.1576L46.3044 20.7065L50.3968 19.3369L58.8588 31.5978L59.0055 38.9674C58.6957 39.4891 54.7012 40.7282 54.4566 40.1576Z" fill="#787878"/>
<path opacity="0.6843" d="M54.4729 40.2228L46.3044 20.7065L50.4131 19.3369L58.9566 31.7608V39.0815C58.6142 39.6195 54.7338 40.7934 54.4729 40.2228Z" fill="#737373"/>
<path opacity="0.698" d="M54.5055 40.2717L46.2881 20.7228L50.4131 19.3533L59.0381 31.9239L58.875 39.1794C58.549 39.75 54.7663 40.875 54.5055 40.2717Z" fill="#6E6E6E"/>
<path opacity="0.7118" d="M54.5218 40.3207L46.2718 20.7228L50.4131 19.3533L59.1196 32.087L58.8098 39.2935C58.4674 39.8804 54.7827 40.9565 54.5218 40.3207Z" fill="#696969"/>
<path opacity="0.7255" d="M54.5381 40.3857L46.2555 20.739L50.4131 19.3694L59.2011 32.2498L58.7283 39.4074C58.3859 40.0107 54.8153 41.0216 54.5381 40.3857Z" fill="#646464"/>
<path opacity="0.7392" d="M54.5543 40.4346L46.2391 20.739L50.4294 19.3694L59.2989 32.4129L58.6794 39.5216C58.3044 40.1411 54.8478 41.1031 54.5543 40.4346Z" fill="#5F5F5F"/>
<path opacity="0.7529" d="M54.5707 40.4835L46.2228 20.739L50.4294 19.3694L59.3968 32.5596L58.6141 39.6031C58.2228 40.2716 54.8641 41.1683 54.5707 40.4835Z" fill="#5A5A5A"/>
<path opacity="0.7667" d="M54.587 40.5488L46.2066 20.7553L50.4294 19.3857L59.4783 32.739L58.549 39.7336C58.1414 40.402 54.8968 41.2499 54.587 40.5488Z" fill="#555555"/>
<path opacity="0.7804" d="M54.6033 40.5977L46.174 20.7553L50.4131 19.3857L59.5435 32.8857L58.4674 39.8314C58.0761 40.5325 54.9131 41.3314 54.6033 40.5977Z" fill="#505050"/>
<path opacity="0.7941" d="M54.6196 40.663L46.1577 20.7717L50.4131 19.4021L59.625 33.0651L58.3859 39.9619C57.9946 40.663 54.9457 41.3967 54.6196 40.663Z" fill="#4B4B4B"/>
<path opacity="0.8078" d="M54.6359 40.7117L46.1414 20.7715L50.4131 19.4182L59.7066 33.2443L58.3207 40.0758C57.9131 40.7932 54.9783 41.478 54.6359 40.7117Z" fill="#464646"/>
<path opacity="0.8216" d="M54.6522 40.7606L46.1251 20.7715L50.4294 19.4182L59.8044 33.391L58.2555 40.1736C57.8316 40.9236 54.9946 41.5595 54.6522 40.7606Z" fill="#414141"/>
<path opacity="0.8353" d="M54.6685 40.8261L46.1088 20.7881L50.4294 19.4348L59.8859 33.5707L58.1903 40.3044C57.7501 41.0544 55.0272 41.625 54.6685 40.8261Z" fill="#3C3C3C"/>
<path opacity="0.849" d="M54.6849 40.875L46.0925 20.7881L50.4294 19.4348L59.9838 33.7174L58.1251 40.4022C57.6849 41.1848 55.0599 41.7066 54.6849 40.875Z" fill="#373737"/>
<path opacity="0.8627" d="M54.7175 40.9239L46.0925 20.7881L50.4457 19.4348L60.0816 33.8805L58.0762 40.5C57.6033 41.3153 55.0762 41.7718 54.7175 40.9239Z" fill="#323232"/>
<path opacity="0.8765" d="M54.7337 40.989L46.0761 20.8042L50.4457 19.4509L60.1631 34.0433L58.0109 40.614C57.5218 41.4455 55.1087 41.8531 54.7337 40.989Z" fill="#2D2D2D"/>
<path opacity="0.8902" d="M54.75 41.0379L46.0598 20.8205L50.4457 19.4673L60.2446 34.2227L57.9294 40.7445C57.4402 41.576 55.1413 41.9347 54.75 41.0379Z" fill="#282828"/>
<path opacity="0.9039" d="M54.7664 41.0868L46.0436 20.8205L50.4621 19.4673L60.3262 34.3858L57.8642 40.8423C57.3588 41.7064 55.1577 41.9999 54.7664 41.0868Z" fill="#232323"/>
<path opacity="0.9176" d="M54.7827 41.1521L46.0272 20.8369L50.462 19.4836L60.424 34.5489L57.799 40.9565C57.2772 41.8369 55.1903 42.0815 54.7827 41.1521Z" fill="#1E1E1E"/>
<path opacity="0.9314" d="M54.7989 41.201L45.9946 20.8369L50.4457 19.4836L60.4891 34.7119L57.7174 41.0706C57.212 41.9673 55.2065 42.1467 54.7989 41.201Z" fill="#191919"/>
<path opacity="0.9451" d="M54.8152 41.25L45.9783 20.837L50.4457 19.5L60.587 34.875L57.6522 41.1848C57.1304 42.0978 55.2391 42.2283 54.8152 41.25Z" fill="#141414"/>
<path opacity="0.9588" d="M54.8316 41.315L45.962 20.8531L50.4457 19.5161L60.6686 35.0542L57.587 41.2987C57.049 42.2281 55.2718 42.3096 54.8316 41.315Z" fill="#0F0F0F"/>
<path opacity="0.9725" d="M54.8479 41.3639L45.9457 20.8531L50.462 19.5161L60.7664 35.2009L57.5381 41.3965C56.9675 42.3585 55.2881 42.3748 54.8479 41.3639Z" fill="#0A0A0A"/>
<path opacity="0.9863" d="M54.8642 41.4128L45.9294 20.8531L50.4621 19.5161L60.8479 35.3639L57.4566 41.5107C56.886 42.4889 55.3207 42.4563 54.8642 41.4128Z" fill="#050505"/>
<path opacity="0.25" d="M54.8805 41.4784L45.9131 20.8697L50.462 19.5327L60.9294 35.5273L57.3913 41.6251C56.8207 42.6197 55.3533 42.5381 54.8805 41.4784Z" fill="black"/>
</g>
<path d="M42.8152 22.9563L53.6576 41.2987C54.538 42.7824 56.6902 42.7824 57.5706 41.2987L59.5761 37.8911C60 37.1737 60 36.2933 59.5761 35.5759L50.6576 20.6248C50.25 19.94 49.5 19.5161 48.7011 19.5161H44.788C43.0109 19.5324 41.9185 21.44 42.8152 22.9563Z" fill="white"/>
</svg>
